<?xml version="1.0" encoding="utf-8"?>
<!-- Generator: Adobe Illustrator 19.0.0, SVG Export Plug-In . SVG Version: 6.00 Build 0)  -->
<svg version="1.1" id="Livello_1" xmlns="http://www.w3.org/2000/svg" xmlns:xlink="http://www.w3.org/1999/xlink" x="0px" y="0px"
	 viewBox="0 0 841.9 595.3" style="enable-background:new 0 0 841.9 595.3;" xml:space="preserve">
<style type="text/css">
	.st0{fill:none;}
	.st1{fill:#FFFFFF;}
	.st2{font-family:'BrandonGrotesque-Bold';}
	.st3{font-size:20px;}
	.st4{font-family:'BrandonGrotesque-Light';}
	.st5{font-size:9px;}
	.st6{opacity:0.35;}
</style>
<rect id="XMLID_19_" x="261.1" y="207.7" class="st0" width="353" height="179"/>
<text id="XMLID_21_" transform="matrix(1 0 0 1 261.1158 221.6667)"><tspan x="0" y="0" class="st1 st2 st3">L’OCCHIO DELLA MANO</tspan><tspan x="0" y="28" class="st1 st4 st5">MARIA SIBYLLA MERIAN</tspan><tspan x="0" y="38.8" class="st1 st4 st5">E CORNELIA HESSE-HONEGGER</tspan><tspan x="0" y="49.6" class="st1 st4 st5">ARTISTE SCIENZIATE</tspan></text>
<g id="XMLID_24_">
	<path id="XMLID_25_" class="st1" d="M247,223.2v85.5c0,0.1-0.3,0.2-0.5,0.2s-0.5-0.1-0.5-0.2v-85.5c0-0.1,0.3-0.2,0.5-0.2
		S247,223.1,247,223.2z"/>
</g>
<g id="XMLID_22_" class="st6">
	<path id="XMLID_23_" class="st1" d="M232.8,317.9c-0.5,0.1-1,0.2-1.6,0.2c-2.2,0-4.1-1.1-4.1-2.4l0.5-108.9c0-1.3,1.8-2.4,4.1-2.4
		c2.2,0,4.1,1.1,4.1,2.4l-0.5,108.9C235.3,316.6,234.3,317.5,232.8,317.9z"/>
</g>
</svg>
