<?xml version="1.0" encoding="utf-8"?>
<!-- Generator: Adobe Illustrator 19.0.0, SVG Export Plug-In . SVG Version: 6.00 Build 0)  -->
<svg version="1.1" id="Livello_1" xmlns="http://www.w3.org/2000/svg" xmlns:xlink="http://www.w3.org/1999/xlink" x="0px" y="0px"
	 viewBox="0 0 595.3 841.9" style="enable-background:new 0 0 595.3 841.9;" xml:space="preserve">
<style type="text/css">
	.st0{fill:#FFFFFF;}
	.st1{opacity:0.35;fill:#FFFFFF;}
</style>
<g id="XMLID_15_">
	<g id="XMLID_3792_">
		<path id="XMLID_3798_" class="st0" d="M212.8,454.7c0-0.6,0.5-1.2,1.2-1.2h15.1c7.9,0,14.4,6.4,14.4,14.2c0,8-6.5,14.5-14.3,14.5
			h-8v15.1c0,0.6-0.6,1.2-1.2,1.2h-5.9c-0.7,0-1.2-0.6-1.2-1.2V454.7z M228.6,474.3c3.6,0,6.6-2.9,6.6-6.7c0-3.5-3-6.2-6.6-6.2h-7.4
			v12.9H228.6z"/>
		<path id="XMLID_3801_" class="st0" d="M270.7,452.8c12.8,0,23.1,10.3,23.1,23.2c0,12.8-10.3,23.1-23.1,23.1
			c-12.8,0-23.1-10.2-23.1-23.1C247.6,463.2,257.8,452.8,270.7,452.8z M270.7,490.7c8.1,0,14.8-6.6,14.8-14.7
			c0-8.1-6.7-14.8-14.8-14.8c-8.1,0-14.7,6.7-14.7,14.8C256,484.1,262.6,490.7,270.7,490.7z"/>
		<path id="XMLID_3804_" class="st0" d="M302.2,454.7c0-0.6,0.5-1.2,1.2-1.2h18.4c7.7,0,14,6.2,14,13.8c0,5.9-3.9,10.7-9.5,13
			l8.8,16.3c0.4,0.8,0,1.9-1.1,1.9h-6.7c-0.6,0-0.9-0.3-1-0.6l-8.5-17h-7.1v16.4c0,0.6-0.6,1.2-1.2,1.2h-5.9c-0.7,0-1.2-0.6-1.2-1.2
			V454.7z M321.1,474c3.4,0,6.4-3,6.4-6.6c0-3.4-3-6.2-6.4-6.2h-10.5V474H321.1z"/>
		<path id="XMLID_3807_" class="st0" d="M351,461.2h-9.8c-0.7,0-1.2-0.6-1.2-1.2v-5.3c0-0.6,0.5-1.2,1.2-1.2h28.1
			c0.7,0,1.2,0.6,1.2,1.2v5.3c0,0.6-0.5,1.2-1.2,1.2h-9.8v36c0,0.6-0.6,1.2-1.2,1.2h-6c-0.6,0-1.2-0.6-1.2-1.2V461.2z"/>
		<path id="XMLID_3809_" class="st0" d="M368.9,496.8l20-43.2c0.2-0.4,0.5-0.7,1.1-0.7h0.6c0.6,0,0.9,0.3,1.1,0.7l19.8,43.2
			c0.4,0.8-0.1,1.7-1.1,1.7h-5.6c-1,0-1.4-0.4-1.9-1.3l-3.1-6.9h-19.2l-3.1,6.9c-0.3,0.6-0.8,1.3-1.9,1.3H370
			C369,498.4,368.5,497.6,368.9,496.8z M396.6,483.1l-6.4-14.1H390l-6.3,14.1H396.6z"/>
		<path id="XMLID_3812_" class="st0" d="M187.6,490l0.1,0.1c0.1,0.1,0.1,0.2,0,0.2c-0.3,0.3-2,2.3-2,5.3c0,2.8,1.9,5.4,4.2,5.4
			c2.9,0,3.9-2.3,4.8-5.7c0.9-3.2,1.9-5.6,5-5.6c2.2,0,4.6,1.6,4.6,5.8c0,2.7-1.4,4.6-1.4,4.6c-0.1,0.1-0.1,0.1-0.2,0.1l-0.2-0.1
			c-0.1-0.1-0.1-0.1-0.1-0.2c0,0,1.3-1.9,1.3-4.3c0-3.9-2.2-5.3-4.2-5.3c-2.7,0-3.7,2.1-4.5,5.2c-1,3.7-2.2,6-5.3,6
			c-2.5,0-4.7-2.8-4.7-5.9c0-3.2,1.9-5.3,2.2-5.7C187.4,489.9,187.5,489.9,187.6,490z"/>
		<path id="XMLID_3814_" class="st0" d="M203.8,505.6c0.1,0,0.2,0.1,0.2,0.2v0.1c0,0.1-0.1,0.2-0.2,0.2h-11.7
			c-3.8,0-6.5,2.4-6.5,6.4c0,4,2.7,6.4,6.5,6.4h11.7c0.1,0,0.2,0.1,0.2,0.2v0.1c0,0.1-0.1,0.2-0.2,0.2h-11.7c-4.1,0-7-2.7-7-6.9
			c0-4.2,2.9-6.9,7-6.9H203.8z"/>
		<path id="XMLID_3816_" class="st0" d="M203.8,525c0.1,0,0.2,0.1,0.2,0.2v0.1c0,0.1-0.1,0.2-0.2,0.2h-17.9v9.3
			c0,0.1-0.1,0.2-0.2,0.2h-0.1c-0.1,0-0.2-0.1-0.2-0.2v-9.5c0-0.1,0.1-0.2,0.2-0.2H203.8z"/>
		<path id="XMLID_3818_" class="st0" d="M203.8,538c0.1,0,0.2,0.1,0.2,0.2v0.1c0,0.1-0.1,0.2-0.2,0.2h-17.9v9.3
			c0,0.1-0.1,0.2-0.2,0.2h-0.1c-0.1,0-0.2-0.1-0.2-0.2v-9.5c0-0.1,0.1-0.2,0.2-0.2H203.8z"/>
		<path id="XMLID_3820_" class="st0" d="M199.4,548.4c0.1-0.1,0.2-0.1,0.2,0.1c0,0,0.7,1.4,2.2,1.4c0.8,0,1.2-0.2,1.5-0.3
			c-0.1-0.1-0.3-0.3-0.3-0.5c0-0.3,0.3-0.6,0.6-0.6c0.3,0,0.6,0.3,0.6,0.6c0,0.6-0.7,1.4-2.4,1.4c-1.8,0-2.6-1.6-2.6-1.6
			c-0.1-0.1-0.1-0.2,0-0.2L199.4,548.4z"/>
		<path id="XMLID_3822_" class="st0" d="M286.5,528.4c-2.7,7.6-8.6,21.2-15.4,35.6c9.7,0,10.5,4.2,5,6.9c-1.6,0.7-4.9,1.4-9.5,2.4
			c-7.6,16.1-15,31.1-17.3,36.6c-4.9,11-4.5,12.5-3.7,15c0.4,2.6-3.9,5.3-8.6,0.6s-5.2-11.8,2.6-26.5c2.7-5,6.8-13.4,11.4-23.2
			c-11.1,1.6-22.2,2.9-26.9,2.9c-3.3,0.1-6.2-0.1-8.9-0.6c-11.4,16.9-16,27.2-17.6,30.7c-2,4.3-0.6,10.1-4.6,9.2
			c-5-1.2-11.4-6.3-9.2-10.4c17.7-32,43.1-66.7,71.2-90.5c9.9-8.5,15.4-10.4,20.8-10.4C282.4,506.8,292.7,510.2,286.5,528.4z
			 M274.7,516.9c-7.6,0-28,17.3-49.1,46.1l-4.9,6.8c8.1-0.7,23.1-2.7,35-4.3C263.1,548.6,270.8,529.5,274.7,516.9z"/>
		<path id="XMLID_3825_" class="st0" d="M316.6,586.7c-2.6,0-9.2-2.2-8.5-6c0.4-3.9-2.3-4.9-5.3-3.3c-1,0.6-3.6,1.7-6.3,3
			c-2.9,5.2-4.8,8.9-5.9,12.8c-3.2,7.8,0.3,11.8-9.7,17.1c-4,2.2-7.2,2.5-8.8-1.6c-3.6-9.1,12.1-32.6,14-37.2c2-4.8,1-6.9,4.2-9.4
			c4.6-3.3,6.5-4.8,8.6-1.4c1.9,3,8.2,0.1,3.3,9.2c5.8-4,11.7-8.1,14.4-8.1c4.8,0,1.4,8.2,2.2,14.7
			C319.5,583.4,319.4,586.7,316.6,586.7z"/>
		<path id="XMLID_3827_" class="st0" d="M378.7,517.6c-3.5,4.9-12.1,14.6-25.2,38c4.2-0.4,7.9-0.6,10.7-1c9.4-1.2,11.1-0.6,10.7,0.6
			c-0.3,1-5.2,8.2-15,9.8c-3.3,0.6-7.9,1.2-12.7,2.2c-1.7,3.3-3.6,6.5-5.5,10.4c-20,39.6-21.5,49.4-23.1,54.2s-5.2,7.3-8.2,3.3
			c-3-4.2-1.9-12.5,2.6-22.3c2.3-5.6,10.2-24.5,18.3-43.1c-3,0.4-5.3,0.7-6.9,0.7c-4.9,0.4-6.9-10.8-3.2-12.2c3.6-1.6,3-0.7,7.9-1.2
			c1.2,0,4.2-0.1,8.1-0.3c4-8.6,8.1-16.3,11.4-21.9c12.1-19.7,18.2-28.1,21.6-27.5c3.6,0.9,10.7,5.5,11.1,7.2
			C381.5,516.1,379.7,516,378.7,517.6z"/>
		<path id="XMLID_3829_" class="st0" d="M405.4,590.2c-4.3,2.7-29.4,15.8-39.5,18.2c-10.4,2.3-14.6-5.8-13.4-11.5
			c1.2-5.8,6.9-17.7,14.7-25.1c7.3-6.9,13.4-7.9,16.4-7.5c4,0.4,9.7,7.1,10.4,13c0.4,5.9-8.4,10.7-14.1,13.4
			c-5.6,2.6-10.5,6.2-14.3,0.1c-1.2,1.6-3.6,6.5,3.9,6.1c7.3-0.4,24.3-6.2,34.4-12.1C413.9,579,409.6,587.5,405.4,590.2z
			 M372.1,583.3c2.6-0.7,8.4-3.3,9.1-6.9C376.7,578.1,375,579.8,372.1,583.3z"/>
	</g>
	<g id="XMLID_3793_">
		<path id="XMLID_3794_" class="st0" d="M186.3,457.9c0-0.2,0.1-0.3,0.3-0.3h1.6c0.2,0,0.3,0.2,0.3,0.3v10h4.5
			c0.2,0,0.3,0.2,0.3,0.3v1.5c0,0.2-0.1,0.3-0.3,0.3h-6.5c-0.2,0-0.3-0.2-0.3-0.3V457.9z"/>
		<path id="XMLID_3796_" class="st0" d="M194.3,469.6l5.5-12c0.1-0.1,0.1-0.2,0.3-0.2h0.2c0.2,0,0.2,0.1,0.3,0.2l5.5,12
			c0.1,0.2,0,0.5-0.3,0.5h-1.6c-0.3,0-0.4-0.1-0.5-0.4l-0.9-1.9h-5.3l-0.9,1.9c-0.1,0.2-0.2,0.4-0.5,0.4h-1.6
			C194.3,470.1,194.1,469.8,194.3,469.6z M202,465.8l-1.8-3.9h-0.1l-1.7,3.9H202z"/>
	</g>
</g>
<rect id="XMLID_11_" x="193.7" y="293.8" class="st1" width="106.3" height="106.3"/>
<g id="XMLID_2_">
	<path id="XMLID_30_" class="st0" d="M320.9,224.4l-0.2-0.4l-0.2,0.4l-50.3,115.9c0.1,0,0.2,0,0.3,0l50.1-115.6l90.9,199.5l0.3-0.1
		L320.9,224.4z"/>
</g>
<g id="XMLID_10_">
	<path id="XMLID_12_" class="st0" d="M345.5,341H233.1c-1.7,0-3.2-1.3-3.2-3s1.4-3,3.2-3h112.3c1.7,0,3.2,1.3,3.2,3
		S347.2,341,345.5,341z"/>
</g>
<g id="XMLID_7_">
	<path id="XMLID_4_" class="st0" d="M233.2,340.4c-0.4,0-0.8-0.1-1.3-0.3c-1.6-0.7-2.3-2.6-1.6-4.2l56.8-131.2
		c0.7-1.6,2.6-2.3,4.2-1.6c1.6,0.7,2.3,2.6,1.6,4.2l-56.8,131.2C235.6,339.7,234.4,340.4,233.2,340.4z"/>
</g>
<g id="XMLID_5_">
	<path id="XMLID_6_" class="st0" d="M297.5,223.9c0-0.4,0.1-0.6,0.6-0.6c0,0,5.1-0.3,7.1-5.1c1-2.5,1-4.1,0.9-5.2
		c-0.6,0.2-1.2,0.5-2,0.1c-1.1-0.4-1.5-1.7-1.1-2.7s1.6-1.5,2.6-1c1.7,0.7,3.4,3.8,1.2,9.4c-2.3,5.7-8.5,6.1-8.5,6.1
		c-0.4,0-0.7,0-0.7-0.4L297.5,223.9z"/>
</g>
<rect id="XMLID_9_" x="184.2" y="284.3" class="st1" width="106.3" height="106.3"/>
</svg>
